<?xml version="1.0" encoding="utf-8"?>
<!-- Generator: Adobe Illustrator 25.4.1, SVG Export Plug-In . SVG Version: 6.00 Build 0)  -->
<svg version="1.1" id="Layer_1" xmlns="http://www.w3.org/2000/svg" xmlns:xlink="http://www.w3.org/1999/xlink" x="0px" y="0px"
	 viewBox="0 0 3179.5 2284.9" style="enable-background:new 0 0 3179.5 2284.9;" xml:space="preserve">
<style type="text/css">
	.st0{fill-rule:evenodd;clip-rule:evenodd;fill:#EFF3FF;}
	.st1{fill-rule:evenodd;clip-rule:evenodd;fill:#B9CAFF;}
	.st2{fill-rule:evenodd;clip-rule:evenodd;fill:#98B2FF;}
	.st3{fill:#FFFFFF;}
	.st4{fill-rule:evenodd;clip-rule:evenodd;fill:#DDEAF8;}
	.st5{fill-rule:evenodd;clip-rule:evenodd;fill:#8C9EF3;}
	.st6{fill-rule:evenodd;clip-rule:evenodd;fill:#FFFFFF;}
	.st7{fill-rule:evenodd;clip-rule:evenodd;fill:#C6D4FF;}
	.st8{fill-rule:evenodd;clip-rule:evenodd;fill:#7183D5;}
	.st9{fill-rule:evenodd;clip-rule:evenodd;fill:#8A9AE2;}
	.st10{fill-rule:evenodd;clip-rule:evenodd;fill:#78C044;}
	.st11{fill-rule:evenodd;clip-rule:evenodd;fill:#FBB44A;}
	.st12{fill:#FBB44A;}
	.st13{fill-rule:evenodd;clip-rule:evenodd;fill:#F7AAAC;}
	.st14{fill-rule:evenodd;clip-rule:evenodd;fill:#F6597B;}
	.st15{fill-rule:evenodd;clip-rule:evenodd;fill:#0C2B47;}
	.st16{fill-rule:evenodd;clip-rule:evenodd;fill:#EF8F93;}
	.st17{fill-rule:evenodd;clip-rule:evenodd;fill:#F28085;}
	.st18{fill:#E16E73;}
	.st19{fill:#0C2B47;}
	.st20{fill-rule:evenodd;clip-rule:evenodd;fill:#ECF4FF;}
	.st21{fill-rule:evenodd;clip-rule:evenodd;fill:#1D3A7D;}
	.st22{fill-rule:evenodd;clip-rule:evenodd;fill:#355297;}
	.st23{fill-rule:evenodd;clip-rule:evenodd;fill:#AEC2FD;}
	.st24{fill-rule:evenodd;clip-rule:evenodd;fill:#DCE9FF;}
	.st25{fill-rule:evenodd;clip-rule:evenodd;fill:#F9A218;}
	.st26{fill-rule:evenodd;clip-rule:evenodd;fill:#FFBF42;}
	.st27{fill-rule:evenodd;clip-rule:evenodd;fill:#FFD481;}
</style>
<path class="st0" d="M796.2,668.3c96.4,0,188.6,17.7,273.7,50l0-0.2c0-373.3,302.6-675.9,675.9-675.9
	c312.8,0,575.8,212.5,652.9,500.9c404.6,58.3,715.5,406.3,715.5,827c0,446.8-350.6,811.7-791.7,834.5v5.3H857.4
	c-20.2,1.6-40.6,2.4-61.2,2.4c-20.6,0-41-0.8-61.2-2.4h-0.3v0C337.1,2178.6,24.2,1846,24.2,1440.3
	C24.2,1014,369.8,668.3,796.2,668.3"/>
<path class="st1" d="M1536.9,1917c-7.4,160-26.9,200.5-162.1,291.7h299.7h299.7c-135.2-91.2-154.8-131.7-162.1-291.7l-137.6-13
	L1536.9,1917z"/>
<path class="st1" d="M873.8,651.6h1611.8c57.8,0,105,52.6,105,116.9v1034.8h0v14.9c0,64.3-47.3,116.9-105,116.9H873.8
	c-57.8,0-105-52.6-105-116.9v-14.9v-62V768.5C768.8,704.2,816,651.6,873.8,651.6"/>
<path class="st2" d="M2590.6,1435.3v367.9h0v14.9c0,64.3-47.3,116.9-105,116.9h-252.5c-58.7-113.5-88.3-242.1-78.4-365.5l4.5-56.1
	l55.5-9.3c98.9-16.5,171-45.1,258-94.1l35.4-20l35.4,20C2559.7,1419.1,2575.3,1427.5,2590.6,1435.3"/>
<path class="st3" d="M820.6,712.5h1716.1c0.7,0,1.3,0.6,1.3,1.4v1027.3H819.3V714C819.3,713.2,819.9,712.5,820.6,712.5"/>
<path class="st0" d="M1340.5,774.5h676.4c130.5,0,237.4,106.8,237.4,237.4v428.5c0,130.5-106.8,237.4-237.4,237.4h-676.4
	c-130.5,0-237.4-106.8-237.4-237.4v-428.5C1103.1,881.3,1209.9,774.5,1340.5,774.5"/>
<rect x="1532.1" y="1935.1" class="st2" width="284.6" height="50.7"/>
<path class="st4" d="M1679.7,1800.4c16.8,0,30.3,13.6,30.3,30.3c0,16.8-13.6,30.3-30.3,30.3c-16.8,0-30.3-13.6-30.3-30.3
	C1649.4,1814,1662.9,1800.4,1679.7,1800.4"/>
<path class="st5" d="M1665.5,837.3c102.7,0,185.9,83.3,185.9,185.9c0,102.7-83.3,186-185.9,186c-102.7,0-185.9-83.3-185.9-186
	C1479.6,920.6,1562.8,837.3,1665.5,837.3"/>
<path class="st6" d="M1785.3,1092c-26,41-72.8,71-121.1,71s-91.8-25-116.7-63.2c4.4-48.3,1.4-60.7,57.9-101
	c12.2,21.5,35.3,36,61.8,36c26.4,0,49.5-14.5,61.7-35.9C1784.5,1040,1779.5,1046.3,1785.3,1092"/>
<path class="st6" d="M1667.2,910.1c29.6,0,53.7,24,53.7,53.7c0,29.6-24,53.7-53.7,53.7s-53.7-24-53.7-53.7
	C1613.5,934.1,1637.5,910.1,1667.2,910.1"/>
<path class="st5" d="M1442.1,1463.6h456.6c29.8,0,54.2,28.8,54.2,64s-24.4,64-54.2,64h-456.6c-29.8,0-54.2-28.8-54.2-64
	S1412.3,1463.6,1442.1,1463.6"/>
<path class="st5" d="M1441.6,1271.5h457.7c29.5,0,53.7,28.5,53.7,63.3c0,34.8-24.2,63.3-53.7,63.3h-457.7
	c-29.5,0-53.7-28.5-53.7-63.3C1387.9,1300,1412.1,1271.5,1441.6,1271.5"/>
<path class="st6" d="M1543.1,1503.8L1543.1,1503.8c3.5,0,6.4,3,6.4,6.7v9.9l8.2-5c3-1.9,7-0.7,8.7,2.5c1.8,3.2,0.7,7.3-2.3,9.2
	l-8.2,5l8.2,5c3,1.8,4.1,6,2.3,9.2c-1.8,3.2-5.7,4.3-8.7,2.5l-8.2-5v9.9c0,3.7-2.9,6.7-6.4,6.7c-3.5,0-6.4-3-6.4-6.7v-9.9l-8.2,5
	c-3,1.9-7,0.7-8.7-2.5c-1.8-3.2-0.7-7.4,2.3-9.2l8.2-5l-8.2-5c-3-1.9-4.1-6-2.3-9.2h0c1.8-3.2,5.7-4.3,8.7-2.5l8.2,5v-9.9
	C1536.7,1506.8,1539.6,1503.8,1543.1,1503.8 M1622.6,1503.8L1622.6,1503.8c3.5,0,6.4,3,6.4,6.7v9.9l8.2-5c3-1.9,7-0.7,8.7,2.5
	c1.8,3.2,0.7,7.3-2.3,9.2l-8.2,5l8.2,5c3,1.8,4.1,6,2.3,9.2c-1.8,3.2-5.7,4.3-8.7,2.5l-8.2-5v9.9c0,3.7-2.9,6.7-6.4,6.7
	c-3.5,0-6.4-3-6.4-6.7v-9.9l-8.2,5c-3,1.9-7,0.7-8.7-2.5c-1.8-3.2-0.7-7.4,2.3-9.2l8.2-5l-8.2-5c-3-1.9-4.1-6-2.3-9.2h0
	c1.8-3.2,5.7-4.3,8.7-2.5l8.2,5v-9.9C1616.3,1506.8,1619.1,1503.8,1622.6,1503.8z M1702.2,1503.8L1702.2,1503.8c3.5,0,6.4,3,6.4,6.7
	v9.9l8.2-5c3-1.9,7-0.7,8.7,2.5c1.8,3.2,0.7,7.3-2.3,9.2l-8.2,5l8.2,5c3,1.8,4.1,6,2.3,9.2c-1.8,3.2-5.7,4.3-8.7,2.5l-8.2-5v9.9
	c0,3.7-2.9,6.7-6.4,6.7c-3.5,0-6.4-3-6.4-6.7v-9.9l-8.2,5c-3,1.9-7,0.7-8.7-2.5c-1.8-3.2-0.7-7.4,2.3-9.2l8.2-5l-8.2-5
	c-3-1.9-4.1-6-2.3-9.2h0c1.8-3.2,5.7-4.3,8.7-2.5l8.2,5v-9.9C1695.8,1506.8,1698.7,1503.8,1702.2,1503.8z M1781.8,1503.8
	L1781.8,1503.8c3.5,0,6.4,3,6.4,6.7v9.9l8.2-5c3-1.9,7-0.7,8.7,2.5c1.8,3.2,0.7,7.3-2.3,9.2l-8.2,5l8.2,5c3,1.8,4.1,6,2.3,9.2
	c-1.8,3.2-5.7,4.3-8.7,2.5l-8.2-5v9.9c0,3.7-2.9,6.7-6.4,6.7s-6.4-3-6.4-6.7v-9.9l-8.2,5c-3,1.9-7,0.7-8.7-2.5
	c-1.8-3.2-0.7-7.4,2.3-9.2l8.2-5l-8.2-5c-3-1.9-4.1-6-2.3-9.2h0c1.8-3.2,5.7-4.3,8.7-2.5l8.2,5v-9.9
	C1775.4,1506.8,1778.2,1503.8,1781.8,1503.8z M1861.3,1503.8L1861.3,1503.8c3.5,0,6.4,3,6.4,6.7v9.9l8.2-5c3-1.9,7-0.7,8.7,2.5
	c1.8,3.2,0.7,7.3-2.3,9.2l-8.2,5l8.2,5c3,1.8,4.1,6,2.3,9.2c-1.8,3.2-5.7,4.3-8.7,2.5l-8.2-5v9.9c0,3.7-2.9,6.7-6.4,6.7
	c-3.5,0-6.4-3-6.4-6.7v-9.9l-8.2,5c-3,1.9-7,0.7-8.7-2.5c-1.8-3.2-0.7-7.4,2.3-9.2l8.2-5l-8.2-5c-3-1.9-4.1-6-2.3-9.2h0
	c1.8-3.2,5.7-4.3,8.7-2.5l8.2,5v-9.9C1854.9,1506.8,1857.8,1503.8,1861.3,1503.8z M1463.5,1503.8L1463.5,1503.8c3.5,0,6.4,3,6.4,6.7
	v9.9l8.2-5c3-1.9,7-0.7,8.7,2.5c1.8,3.2,0.7,7.3-2.3,9.2l-8.2,5l8.2,5c3,1.8,4.1,6,2.3,9.2c-1.8,3.2-5.7,4.3-8.7,2.5l-8.2-5v9.9
	c0,3.7-2.9,6.7-6.4,6.7c-3.5,0-6.4-3-6.4-6.7v-9.9l-8.2,5c-3,1.9-7,0.7-8.7-2.5c-1.8-3.2-0.7-7.4,2.3-9.2l8.2-5l-8.2-5
	c-3-1.9-4.1-6-2.3-9.2h0c1.8-3.2,5.7-4.3,8.7-2.5l8.2,5v-9.9C1457.2,1506.8,1460,1503.8,1463.5,1503.8z"/>
<path class="st6" d="M1639.2,1321.6h258.5c6.5,0,11.8,5.3,11.8,11.8v0c0,6.5-5.3,11.8-11.8,11.8h-258.5c-6.5,0-11.8-5.3-11.8-11.8v0
	C1627.4,1326.9,1632.7,1321.6,1639.2,1321.6"/>
<path class="st6" d="M1443.2,1323.7h148.1c6.5,0,11.8,5.3,11.8,11.8v0c0,6.5-5.3,11.8-11.8,11.8h-148.1c-6.5,0-11.8-5.3-11.8-11.8v0
	C1431.4,1329,1436.7,1323.7,1443.2,1323.7"/>
<path class="st7" d="M2539.5,2221.1c8.5-5.4,55.6-33.5,63.8-39.4c187.9-134.2,306.7-382.3,288.2-612.1l-4.6-56.6l-56.1-8.8
	c-98.5-15.5-170.9-45.2-257.4-94l-35.4-20l-35.4,20c-87,49.1-159.2,77.6-258,94.1l-55.5,9.3l-4.5,56.1
	c-19.3,239.9,110.9,499.7,313.3,629.1L2539.5,2221.1z"/>
<path class="st8" d="M2537.4,1507.9c86.4,48.7,155.9,76.6,252,91.7c15.8,196.4-94.8,404.3-252,504.2
	c-157.3-99.9-267.8-307.8-252-504.2C2383.3,1583.2,2451,1556.6,2537.4,1507.9"/>
<path class="st9" d="M2537.4,2076.3c-83-61.9-147.7-152.1-185.9-247.3c-26.5-66-41.6-137.4-40.8-208.7c38.9-7.9,77.1-18.3,114.5-32
	c38.7-14.3,75.9-31.9,112.3-51.4L2537.4,2076.3L2537.4,2076.3z"/>
<path class="st10" d="M2537.4,1668c60.5,0,109.6,49.1,109.6,109.6c0,60.5-49.1,109.6-109.6,109.6c-60.5,0-109.6-49.1-109.6-109.6
	C2427.8,1717.1,2476.9,1668,2537.4,1668"/>
<path class="st6" d="M2556.6,1794l-66.1-61.4c-6.7-6.2-17.3-5.9-23.5,0.9c-6.3,6.7-5.9,17.3,0.9,23.5l78.8,73.2l0.2,0.2
	c6.9,6,17.4,5.3,23.5-1.6l32.6-37.2c6-6.9,5.3-17.5-1.6-23.5c-6.9-6-17.4-5.3-23.5,1.6L2556.6,1794z"/>
<path class="st11" d="M2537.4,1668c-60.5,0-109.6,49.1-109.6,109.6c0,60.5,49.1,109.6,109.6,109.6c60.5,0,109.6-49.1,109.6-109.6
	C2647,1717.1,2597.9,1668,2537.4,1668"/>
<path class="st6" d="M2518.2,1794l66.1-61.4c6.7-6.2,17.3-5.9,23.5,0.9c6.3,6.7,5.9,17.3-0.9,23.5l-78.8,73.2l-0.2,0.2
	c-6.9,6-17.4,5.3-23.5-1.6l-32.6-37.2c-6-6.9-5.3-17.5,1.6-23.5c6.9-6,17.4-5.3,23.5,1.6L2518.2,1794z"/>
<path class="st12" d="M2639.1,1675.9c-26-26-62-42.1-101.7-42.1s-75.6,16.1-101.7,42.1c-26,26-42.1,62-42.1,101.7
	s16.1,75.6,42.1,101.7c26,26,62,42.1,101.7,42.1s75.6-16.1,101.7-42.1c26-26,42.1-62,42.1-101.7
	C2681.2,1737.9,2665.1,1702,2639.1,1675.9 M2537.4,1641.1c37.7,0,71.8,15.3,96.5,40c24.7,24.7,40,58.8,40,96.5s-15.3,71.8-40,96.5
	c-24.7,24.7-58.8,40-96.5,40c-37.7,0-71.8-15.3-96.5-40c-24.7-24.7-40-58.8-40-96.5s15.3-71.8,40-96.5
	C2465.6,1656.4,2499.7,1641.1,2537.4,1641.1z"/>
<path class="st13" d="M1005.1,1820.7c0,0,46,101.8,85.1,101.2c39.1-0.6,70.8-99.3,70.8-99.3l11.2-69.5l-79.5-49.1L1005.1,1820.7z"/>
<path class="st14" d="M874,1614.8c31.6,61.5,56.1,220.4,152.3,273c2.9-13.3,11.6-16.8,18.2-67.1c6.6-50.3,104-92.5,104-92.5l0,0
	c-62.6-37.5-123.1-309.4-269.3-343.5C860.9,1374.3,820.2,1543,874,1614.8"/>
<path class="st13" d="M1237.5,1446.2c-4.4-16.6-20.9-82.9-15.3-98.2c2.8-7.8,5.3-6.1,9.3-4.1c3.5,1.8,9.1,8.6,11.1,14.2
	c4.2,11.7,20.9,26.8,22.3,33.6c43.9-39.6,74.1-131.2,105.5-110.9c2.9,7-36.9,63.6-33.5,74.9c10.9,35.7,68.8,48.5-21.9,156.7
	c-6.2,7.4-13.1,31.9-22.1,49.5c-32.7,99.3-43.8,195-97.5,284.4c-78.2,130.2-195,84.6-120.8-70.6c28.4-59.4,85-150.4,148.8-285.9
	L1237.5,1446.2z"/>
<path class="st15" d="M868.9,1212.1c23.8,74.5,47.1,170.1-63.2,171.7c-71.4,1.1-101.4-10.4-100.9-28.9c0.5-18.5,6.5-75.2,10.9-82.3
	s38.2-45.3,45.8-49.1C769.2,1219.7,868.9,1212.1,868.9,1212.1"/>
<path class="st14" d="M557.4,1363.6c-76.8,0-118,27-164.4,75.1c-2.8,2.8-5,6.4-6.9,10.7c14.9,137.2,53.8,151.3,13.3,238.3
	c74.8,199.7,145.4,167.8,12.4,521.7h620.8c-22.9-130.2-58.9-243.8-60.5-261.9c-11.5-128.5,42.3-491.6-68.6-554.7
	C816.3,1343.2,663.9,1363.6,557.4,1363.6"/>
<path class="st6" d="M768.3,1360.3c91.1,49.3,138.9,523.9,117.1,849.1H673c55.5-479.8-51.1-725.7-105.8-846.4
	C644.8,1357.8,672.1,1352.1,768.3,1360.3"/>
<path class="st13" d="M770,1332.2l2.2,49.2c30.5,39.2-16.6,85.7-50.4,102.9c-16.8-2.6-112.7-32.9-118.3-108.7l0.4-4.9l3.3-107.5
	c-4.6-1.2-14.6-1.4-23.4-16.4c-9.6-16.4-17.9-48.1-16.4-59.5c2.6-20.6,5.7-34,5.7-34h0c-27.3-59.5-35.2-84.3,26.7-120.9
	c61.9-36.5,190-39.7,190-39.7l55.3-2.2C898.7,1025.3,924.1,1318.4,770,1332.2"/>
<path class="st16" d="M885,1175.1c-1.5,16.4-4.2,32.6-8.1,48c-14.3-0.9-25.7-12.7-25.7-27.3c0-15.1,12.2-27.3,27.3-27.3
	c2.3,0,4.5,0.3,6.6,0.8C885.1,1171.3,885,1173.2,885,1175.1"/>
<path class="st17" d="M654,1279.1c30.2,71,57,96.7,118.2,102.3l-2.2-49.2C746.6,1331,688.8,1313.8,654,1279.1"/>
<path class="st14" d="M416.5,1416c-158,125.9-88.2,455-71.2,463.1c78.5,37.8,127-18.2,167.8-40.7
	C516,1829.2,537.1,1319.9,416.5,1416"/>
<path class="st15" d="M744.9,1143.6c4.6,0,8.3,3.7,8.3,8.3c0,4.6-3.7,8.3-8.3,8.3c-4.6,0-8.3-3.7-8.3-8.3
	C736.6,1147.3,740.3,1143.6,744.9,1143.6"/>
<path class="st18" d="M797.9,1147.1c-0.6-1.5,0.1-3.1,1.6-3.7c1.5-0.6,3.1,0.1,3.7,1.6c0.1,0.1,19.1,46.2,18.8,51.5
	c-0.3,6.6-19,13-19.1,13c-1.5,0.5-3.1-0.3-3.6-1.8s0.3-3.1,1.8-3.6c0,0,15-5.2,15.2-7.9C816.5,1192.1,798,1147.2,797.9,1147.1"/>
<path class="st19" d="M717.2,1129.4c-1.1,1.5-3.3,2-5.1,1.2c-1.8-0.8-2.3-2.8-1.3-4.3c5.8-23,36-30.2,54.8-12.3
	c1.4,1.2,1.3,3.2-0.2,4.4c-1.5,1.2-3.8,1.2-5.2,0c-12-6.7-26.5-4.5-35.7,3C721.9,1123.7,719.5,1126.3,717.2,1129.4"/>
<path class="st16" d="M706,1175.6c15.1,0,27.3,12.2,27.3,27.3s-12.2,27.3-27.3,27.3c-15.1,0-27.3-12.2-27.3-27.3
	C678.7,1187.9,690.9,1175.6,706,1175.6"/>
<path class="st15" d="M841.9,1139.6c4.6,0,8.3,3.7,8.3,8.3s-3.7,8.3-8.3,8.3c-4.6,0-8.3-3.7-8.3-8.3
	C833.6,1143.3,837.3,1139.6,841.9,1139.6"/>
<path class="st19" d="M861.6,1114.6c1.2,1.1,3.3,1,4.6-0.1c1.3-1.1,1.4-2.9,0.1-3.9c-12-16.5-37.5-17.8-49.6,1.7
	c-0.9,1.4-0.4,3,1.1,3.7c1.5,0.7,3.6,0.2,4.5-1.2c8.8-8.4,21.7-9.7,31.3-5.3C856.3,1110.7,859,1112.4,861.6,1114.6"/>
<path class="st15" d="M883.4,1089c-22.4-14.4-35-19-64.6-70.3c-17.3,76.2-153.8,46.3-178.8,143.7c-4.9,19.3-22.3,20-34.2,8.6
	c-11.9-11.3-24.1-3-23.1,15.1s12.6,41.6,29.2,49.4c17.3,8.2,53,198.3-109.6,157.3c-92.9-23.4-114.6-138.9-51.8-215.5
	c29.7-36.3,52.9-85.6,74.1-123.3c25.2-44.8,51.8-106.8,121.2-136.3c72.7-31,153.9-20.9,203.1,29.3
	C901.7,1000.8,883.4,1089,883.4,1089"/>
<path class="st20" d="M608.3,1220.3c6.9,0,12.4,5.6,12.4,12.4c0,6.9-5.6,12.4-12.4,12.4c-6.9,0-12.4-5.6-12.4-12.4
	C595.9,1225.9,601.4,1220.3,608.3,1220.3"/>
<path class="st21" d="M1089,1678.7H983.8c-8.2,0-11.4,7.4-14.8,14.8l-105.2,230.3c-3.4,7.4,6.7,14.8,14.8,14.8h105.2
	c8.2,0,11.2-7.5,14.8-14.8l111.9-224C1114.2,1692.6,1097.2,1678.7,1089,1678.7"/>
<path class="st22" d="M1096.5,1686.9H991.3c-8.2,0-11.4,7.4-14.8,14.8L871.2,1932c-3.4,7.4,6.7,14.8,14.8,14.8h105.2
	c8.2,0,11.4-7.4,14.8-14.8l105.2-230.3C1114.8,1694.3,1104.7,1686.9,1096.5,1686.9"/>
<path class="st13" d="M772.2,1859.9c11.9-6,42.1-24.9,55.6-42.2c13.4-17.3,30.4-30.1,60.2-33.7c29.8-3.6,40.7-2.2,40.7-2.2
	l-7.1,15.1l-16.7-0.4c46.4,5.8,88.7,9.5,135.2,17.9c0,0,11.2,7.6-1.9,10.5c-13.1,2.9-71.9,2.9-71.9,2.9l-28.7-0.2c0,0,48,3.3,64,2.9
	c16-0.5,39.7-2.5,43.5,0.5c1.2,1.9,8.1,8.5-1.7,13.6c-9.7,5.1-96.9,11.7-96.9,11.7l-11.5,1.4c0,0,42,5.3,55.4,3.3
	c13.4-1.9,41.8-6,43.5-3.3c1.7,2.6,5.5,10.3-3.3,13.6c-8.8,3.3-48.7,12.9-65.7,17.2s-34.6,7.2-34.6,7.2s28.1,4.5,33.8,3.8
	c5.7-0.7,25.4-7.8,32.4-6.9c7,0.9,10.1,5.6,7.4,8.7c-2.7,3.1-52.6,23.4-77.9,25.2c-25.3,1.8-74.2,1.1-85.2,4.6
	c-8.7,2.9-201.2,83-301.4,120.4c-82.8,30.8-146.1,12.3-167.9-84.9c-18.1-81.1-24.1-96.9-23-98.2c30.2-35.6,152.4-72.6,159.7-40.6
	l17.3,76.1C566.3,1877.2,753,1869.5,772.2,1859.9"/>
<path class="st8" d="M1089.4,1699.5c3.6,1.8,4.4,7.4,1.8,12.5s-7.5,7.7-11.1,5.9c-3.6-1.8-4.4-7.4-1.8-12.5
	C1080.8,1700.4,1085.8,1697.7,1089.4,1699.5"/>
<path class="st23" d="M1091.2,1701.7c3.6,1.8,4.4,7.4,1.8,12.5s-7.5,7.7-11.1,5.9c-3.6-1.8-4.4-7.4-1.8-12.5
	C1082.6,1702.6,1087.6,1699.9,1091.2,1701.7"/>
<path class="st24" d="M1078.6,1714.5c-0.2-2.1,0.3-4.5,1.4-6.8c1.7-3.4,4.5-5.7,7.3-6.3c2.2,1.5,3.6,4.2,3.6,7.4
	c0,4.7-3.2,8.5-7.1,8.5C1081.8,1717.2,1079.9,1716.2,1078.6,1714.5"/>
<path class="st20" d="M749.4,1229.8c29.1,6.8,47.9,6.7,71.6,5.5c0,0-10.6,21.6-35.9,23.7C758,1257.1,749.4,1229.8,749.4,1229.8"/>
<path class="st7" d="M1036.3,515.2H1260c50.5,0,91.8,41.3,91.8,91.8v223.7c0,50.5-41.3,91.8-91.8,91.8h-223.7
	c-50.5,0-91.8-41.3-91.8-91.8V607C944.5,556.5,985.8,515.2,1036.3,515.2"/>
<path class="st6" d="M1250,789.4l-7.2-7.3c-3-3.1-3.7-7.8-1.5-11.5c4.1-7.2,7.3-14.8,9.5-22.6c1.2-4.1,5-7,9.3-6.9l10.3,0
	c5.3,0,9.7-4.2,9.7-9.6l0.1-19.7c0-5.3-4.3-9.7-9.6-9.7l-10.3-0.1c-4.3,0-8.1-2.9-9.2-7.1c-2.1-7.9-5.2-15.5-9.2-22.7
	c-2.1-3.8-1.4-8.4,1.7-11.5l7.3-7.2c3.8-3.7,3.8-9.9,0.1-13.7l-13.8-14c-3.7-3.8-9.9-3.8-13.7-0.1l-7.3,7.2c-3.1,3-7.8,3.7-11.5,1.5
	c-7.2-4.2-14.8-7.3-22.6-9.5c-4.2-1.2-7-5-6.9-9.3l0.1-10.3c0-5.3-4.3-9.7-9.6-9.7l-19.7-0.1c-5.3,0-9.7,4.3-9.7,9.6l-0.1,10.3
	c0,4.3-2.9,8.1-7.1,9.2c-7.8,2.1-15.5,5.2-22.7,9.2c-3.7,2.1-8.4,1.4-11.5-1.7l-7.2-7.3c-3.7-3.8-9.9-3.8-13.7-0.1l-14,13.8
	c-3.8,3.8-3.8,9.9-0.1,13.7l7.2,7.3c3,3.1,3.7,7.8,1.5,11.5c-4.2,7.2-7.3,14.8-9.5,22.6c-1.2,4.2-5,7-9.3,7l-10.3-0.1
	c-5.3,0-9.7,4.3-9.7,9.6l-0.1,19.7c0,5.3,4.3,9.7,9.6,9.7l10.3,0.1c4.3,0,8.1,2.9,9.2,7.1c2.1,7.8,5.2,15.5,9.2,22.7
	c2.1,3.7,1.4,8.5-1.7,11.5l-7.3,7.2c-3.8,3.7-3.8,9.9-0.1,13.7l13.8,14c3.7,3.8,9.9,3.8,13.7,0.1l7.3-7.2c3.1-3,7.8-3.7,11.5-1.5
	c7.2,4.1,14.8,7.3,22.6,9.5c4.1,1.2,7,5,6.9,9.3l-0.1,10.3c0,5.3,4.3,9.7,9.6,9.7l19.7,0.1c5.3,0,9.7-4.3,9.7-9.6l0.1-10.3
	c0-4.3,2.9-8.1,7.1-9.2c7.9-2.1,15.5-5.2,22.7-9.2c3.8-2.1,8.4-1.4,11.5,1.7l7.2,7.3c3.7,3.8,9.9,3.8,13.7,0.1l14-13.8
	C1253.8,799.4,1253.8,793.2,1250,789.4 M1185.5,764.8c-18.3,13-43.6,12.8-61.7-0.4c-30-21.8-29.7-65.9,0.5-87.3
	c18.3-13,43.6-12.8,61.7,0.4C1216.1,699.3,1215.8,743.3,1185.5,764.8z"/>
<polygon class="st25" points="2816.5,965.5 2816.5,1274.4 2297.2,1274.4 2297.2,965.5 2562.4,800.1 "/>
<polygon class="st6" points="2712.3,871.4 2711.9,1197.1 2390.9,1197.1 2390.9,871.8 "/>
<polygon class="st26" points="2297.2,965.5 2552.9,1193.2 2816.5,965.5 2816.5,1274.4 2297.2,1274.4 "/>
<polygon class="st27" points="2297.2,1274.4 2559.1,1090.9 2816.5,1274.4 "/>
<path class="st7" d="M2461.5,941.2h79.8c5.6,0,10.2,4.6,10.2,10.2l0,0c0,5.6-4.6,10.2-10.2,10.2h-79.8c-5.6,0-10.2-4.6-10.2-10.2
	l0,0C2451.3,945.8,2455.9,941.2,2461.5,941.2"/>
<path class="st7" d="M2461.5,989.2h184c5.6,0,10.2,4.6,10.2,10.2l0,0c0,5.6-4.6,10.2-10.2,10.2h-184c-5.6,0-10.2-4.6-10.2-10.2l0,0
	C2451.3,993.8,2455.9,989.2,2461.5,989.2"/>
<path class="st7" d="M2461.5,1035.9h184c5.6,0,10.2,4.6,10.2,10.2l0,0c0,5.6-4.6,10.2-10.2,10.2h-184c-5.6,0-10.2-4.6-10.2-10.2l0,0
	C2451.3,1040.5,2455.9,1035.9,2461.5,1035.9"/>
</svg>
