<?xml version="1.0" encoding="utf-8"?>
<!-- Generator: Adobe Illustrator 25.4.1, SVG Export Plug-In . SVG Version: 6.00 Build 0)  -->
<svg version="1.1" id="Layer_1" xmlns="http://www.w3.org/2000/svg" xmlns:xlink="http://www.w3.org/1999/xlink" x="0px" y="0px"
	 viewBox="0 0 385.3 374.1" style="enable-background:new 0 0 385.3 374.1;" xml:space="preserve">
<style type="text/css">
	.st0{fill:#E4F2F6;}
	.st1{fill:#B4D7DC;}
	.st2{fill:#0091C8;}
	.st3{opacity:0.11;enable-background:new    ;}
	.st4{fill:#D2F0FF;}
	.st5{opacity:0.35;enable-background:new    ;}
	.st6{fill:#FFFFFF;}
	.st7{fill:#EBEBF0;}
	.st8{fill:#FFD23C;}
	.st9{fill:#FFC305;}
	.st10{fill:none;stroke:#B4D7DC;stroke-width:2.2539;stroke-miterlimit:10;}
	.st11{fill:none;stroke:#B4D7DC;stroke-width:5.6347;stroke-miterlimit:10;}
	.st12{fill:none;stroke:#F2B47C;stroke-width:11.8749;stroke-linecap:round;stroke-miterlimit:10;}
	.st13{fill:#C8E6EB;}
	.st14{fill:#00558C;}
	.st15{fill:#FFB478;}
	.st16{fill:#F9C388;}
	.st17{fill:#5046AF;}
	.st18{fill:#41378C;}
	.st19{fill:#A86537;}
	.st20{fill:#633C20;}
	.st21{fill:#8E552E;}
	.st22{fill:#DD9F6B;}
	.st23{fill:#965028;}
	.st24{fill:#F2B47C;}
	.st25{fill:#654932;}
	.st26{fill:none;stroke:#FFFFFF;stroke-width:1.2596;stroke-miterlimit:10;}
	.st27{fill:none;stroke:#C8E6EB;stroke-width:1.2596;stroke-linecap:round;stroke-miterlimit:10;}
	.st28{fill:#004D77;}
	.st29{fill:#FA870A;}
	.st30{fill:#FFE1C3;}
	.st31{fill:#738C96;}
	.st32{fill:#A5C8CD;}
	.st33{fill:#FA503C;}
	.st34{opacity:0.5;enable-background:new    ;}
	.st35{fill:none;stroke:#FFFFFF;stroke-width:0.9896;stroke-miterlimit:10;}
	.st36{fill:none;stroke:#FFFFFF;stroke-width:0.9896;stroke-linecap:round;stroke-miterlimit:10;}
	.st37{fill:#55C7A6;}
	.st38{fill:#39AE96;}
	.st39{fill:#1C9585;}
	.st40{fill:#B48255;}
	.st41{fill:#C8A06E;}
	.st42{fill:#DCBE82;}
	.st43{fill:#96DBBF;}
	.st44{fill:#289FC9;}
	.st45{fill:#41B4E6;}
	.st46{fill:#73C8F0;}
</style>
<g>
	<path class="st0" d="M270.7,128.4c11.4,8.3,26.7,10.2,40,4.6c7.6-3.2,16.2-3.3,23.6,0.2c7.8,3.6,17.2,3.8,25.5-0.5
		c13.3-6.8,19.3-23.1,13.5-36.9c-4.7-11.3-15.7-18-27-18c-8,0.1-15.7-3.1-21-9.1c-7.2-8.2-17.4-13.1-28.1-13.8
		c-11.1-0.7-21.2-6.6-27.1-16c-14.1-22.5-43.6-32.6-69.5-20.7c-27.3,12.6-39.5,45.5-26.9,72.8c11.3,24.4,37.5,36,61.8,30.7
		C247.7,118.9,260.6,121.1,270.7,128.4z"/>
	<path class="st1" d="M201.5,96.3c-13.6,0-24-8.6-28.7-19.4c-5.5-12.7-14.5-23.7-26.5-30.6c-3-1.7-5.9-3.6-8.7-5.6
		c-11.1-8.1-24.4-13.4-39.1-15.1c-0.2,0-0.3,0-0.5,0c-17.4-1.8-31.4,13.7-28.6,30.9c0.2,1.5,0.4,3,0.5,4.5
		c0.8,17.4-13.2,31.3-29.2,34.2c-22.4,4-35.2,27.8-25.2,48.2c11.9,24.4,35.7,42.6,65.3,45.8c18.6,2,36.3-2.4,51.1-11.4
		c15.5-9.4,32.8-15.5,50.9-16.7c23.6-1.7,44.7-19.7,47.4-45.7c0-0.1,0-0.2,0-0.3c1.2-12.4-10.2-22.3-22.4-19.5
		C205.8,96,203.7,96.3,201.5,96.3z"/>
</g>
<g>
	<g>
		<g>
			<path class="st2" d="M304.4,346.4H101.5c-5.1,0-9.3-4.1-9.3-9.3V65c0-5.1,4.1-9.3,9.3-9.3h202.9c5.1,0,9.3,4.1,9.3,9.3v272.2
				C313.6,342.3,309.5,346.4,304.4,346.4z"/>
			<polygon class="st3" points="313.2,335.2 125.9,346.4 108.8,79.5 296.1,68.3 			"/>
			<polygon class="st4" points="309.4,331.4 122.1,342.6 105,75.7 292.3,64.5 			"/>
			<polygon class="st5" points="256.2,331.1 108.3,331.1 108.3,63.7 296,63.7 296,297.7 			"/>
			<polygon class="st6" points="251.5,295.7 251.2,328.4 103.5,328.4 103.5,61 291.2,61 291.2,296.3 			"/>
			<path class="st7" d="M134.5,63.4v19h137.6v-19c0-1.2-0.2-2.4-0.4-3.5H134.9C134.7,61,134.5,62.2,134.5,63.4z"/>
			<path class="st8" d="M218.5,39.5c0-0.9-0.1-1.8-0.2-2.7c-1.1-6.8-6.8-12-13.6-12.7c-9.1-0.8-16.7,6.3-16.7,15.2c0,0,0,0,0,0.1
				c0,3-2.3,5.6-5.4,5.6h-33c-8.3,0-15.1,6.8-15.1,15.1v19h137.6v-19c0-8.3-6.8-15.1-15.1-15.1h-33
				C220.9,44.9,218.5,42.5,218.5,39.5z M203.3,34.2c2.8,0,5.1,2.3,5.1,5.1s-2.3,5.1-5.1,5.1s-5.1-2.3-5.1-5.1S200.4,34.2,203.3,34.2
				z"/>
			<rect x="134.5" y="70.3" class="st9" width="137.6" height="8.7"/>
			<polygon class="st1" points="251.2,328.4 291.2,296.3 251.5,295.7 			"/>
			<g>
				<path class="st1" d="M263.5,115.7c0.6,0,1,0.5,1,1v15.8c0,0.6-0.5,1-1,1h-15.8c-0.6,0-1-0.5-1-1v-15.8c0-0.6,0.5-1,1-1H263.5
					 M263.5,113.4h-15.8c-1.8,0-3.3,1.5-3.3,3.3v15.8c0,1.8,1.5,3.3,3.3,3.3h15.8c1.8,0,3.3-1.5,3.3-3.3v-15.8
					C266.8,114.9,265.3,113.4,263.5,113.4L263.5,113.4z"/>
			</g>
			<g>
				<path class="st1" d="M263.5,161.9c0.6,0,1,0.5,1,1v15.8c0,0.6-0.5,1-1,1h-15.8c-0.6,0-1-0.5-1-1v-15.8c0-0.6,0.5-1,1-1H263.5
					 M263.5,159.7h-15.8c-1.8,0-3.3,1.5-3.3,3.3v15.8c0,1.8,1.5,3.3,3.3,3.3h15.8c1.8,0,3.3-1.5,3.3-3.3V163
					C266.8,161.1,265.3,159.7,263.5,159.7L263.5,159.7z"/>
			</g>
			<g>
				<path class="st1" d="M263.5,208.1c0.6,0,1,0.5,1,1V225c0,0.6-0.5,1-1,1h-15.8c-0.6,0-1-0.5-1-1v-15.8c0-0.6,0.5-1,1-1
					L263.5,208.1 M263.5,205.9h-15.8c-1.8,0-3.3,1.5-3.3,3.3V225c0,1.8,1.5,3.3,3.3,3.3h15.8c1.8,0,3.3-1.5,3.3-3.3v-15.8
					C266.8,207.3,265.3,205.9,263.5,205.9L263.5,205.9z"/>
			</g>
			<g>
				<path class="st1" d="M263.5,254.3c0.6,0,1,0.5,1,1v15.8c0,0.6-0.5,1-1,1h-15.8c-0.6,0-1-0.5-1-1v-15.8c0-0.6,0.5-1,1-1H263.5
					 M263.5,252.1h-15.8c-1.8,0-3.3,1.5-3.3,3.3v15.8c0,1.8,1.5,3.3,3.3,3.3h15.8c1.8,0,3.3-1.5,3.3-3.3v-15.8
					C266.8,253.5,265.3,252.1,263.5,252.1L263.5,252.1z"/>
			</g>
			<line class="st10" x1="132.3" y1="115.9" x2="231.2" y2="115.9"/>
			<line class="st10" x1="132.3" y1="124.4" x2="231.2" y2="124.4"/>
			<line class="st10" x1="132.3" y1="132.9" x2="231.2" y2="132.9"/>
			<line class="st11" x1="132.3" y1="108.1" x2="178.5" y2="108.1"/>
			<line class="st10" x1="132.3" y1="162.1" x2="231.2" y2="162.1"/>
			<line class="st10" x1="132.3" y1="170.6" x2="231.2" y2="170.6"/>
			<line class="st10" x1="132.3" y1="179.1" x2="231.2" y2="179.1"/>
			<line class="st11" x1="132.3" y1="153.2" x2="178.5" y2="153.2"/>
			<line class="st10" x1="132.3" y1="208.3" x2="231.2" y2="208.3"/>
			<line class="st10" x1="132.3" y1="216.8" x2="231.2" y2="216.8"/>
			<line class="st10" x1="132.3" y1="225.3" x2="231.2" y2="225.3"/>
			<line class="st11" x1="132.3" y1="199.4" x2="178.5" y2="199.4"/>
			<line class="st10" x1="132.3" y1="254.5" x2="231.2" y2="254.5"/>
			<line class="st10" x1="132.3" y1="263" x2="231.2" y2="263"/>
			<line class="st10" x1="132.3" y1="271.5" x2="231.2" y2="271.5"/>
			<line class="st11" x1="132.3" y1="245.6" x2="178.5" y2="245.6"/>
		</g>
		<g>
			<path class="st12" d="M92.7,166.7c0,0,15.9,21,37.5,21c8.9,0,17.9-8.8,17.9-18.4"/>
			<path class="st13" d="M365,351.1H26c-1.4,0-2.5-1.1-2.5-2.5l0,0c0-1.4,1.1-2.5,2.5-2.5h339c1.4,0,2.5,1.1,2.5,2.5l0,0
				C367.5,350,366.4,351.1,365,351.1z"/>
			<path id="XMLID_4083_" class="st14" d="M92.4,236.1H54.3c-4.3,0-7.8-3.5-7.8-7.8v-60.7c0-4.1,3.3-7.5,7.5-7.5h37.3
				c4.3,0,7.8,3.5,7.8,7.8v61.4C99.1,233.1,96.1,236.1,92.4,236.1z"/>
			<rect x="46.5" y="195" class="st15" width="52.6" height="1.8"/>
			<g id="XMLID_4069_">
				<rect id="XMLID_4082_" x="57.5" y="290.4" class="st16" width="10" height="48"/>
				<rect id="XMLID_4081_" x="78.3" y="290.4" class="st16" width="10" height="48"/>
				<rect id="XMLID_4080_" x="53.8" y="248.8" class="st17" width="16.3" height="85.5"/>
				<rect id="XMLID_4079_" x="76.6" y="248.8" class="st17" width="16.3" height="85.5"/>
				<rect id="XMLID_4078_" x="53.8" y="236.1" class="st17" width="39" height="27.5"/>
				<rect id="XMLID_4077_" x="51.8" y="333.3" class="st18" width="18.2" height="5.2"/>
				<rect id="XMLID_4076_" x="76.6" y="333.3" class="st18" width="18.2" height="5.2"/>
				<rect id="XMLID_4075_" x="51.5" y="332.8" class="st19" width="8.7" height="6.2"/>
				<rect id="XMLID_4074_" x="86.2" y="332.8" class="st19" width="8.7" height="6.2"/>
				<rect id="XMLID_4073_" x="38.3" y="344.1" class="st20" width="31.1" height="2"/>
				<rect id="XMLID_4072_" x="75.8" y="344.1" class="st20" width="31.1" height="2"/>
				<path id="XMLID_4071_" class="st21" d="M68.6,344.1H40.3l0,0c0-3.7,3-6.7,6.7-6.7h21.6C68.6,337.4,68.6,344.1,68.6,344.1z"/>
				<path id="XMLID_4070_" class="st21" d="M77.2,344.1h28.3l0,0c0-3.7-3-6.7-6.7-6.7H77.2V344.1z"/>
			</g>
			<path class="st6" d="M72.5,184.8c6.6,0,9.6-24.7,9.6-24.7H62.9C62.9,160.1,65.8,184.8,72.5,184.8z"/>
			<path id="XMLID_4068_" class="st22" d="M72.5,168.3L72.5,168.3c-4,0-7.2-3.2-7.2-7.2v-9.2h14.4v9.2
				C79.7,165.1,76.4,168.3,72.5,168.3z"/>
			<g id="XMLID_4060_">
				<path class="st23" d="M98.3,117.4c0-2.1-0.8-4-2.2-5.4c-1-1-1.7-2.4-2.2-3.8c-1.8-4.9-6.4-8.4-11.9-8.4c-1.5,0-2.9,0.3-4.2,0.7
					c-1.6,0.6-3.3,0.9-5.1,0.9l0,0c-9.3,0-17.1,2.4-19.6,7.8c-0.8,1.6-1.8,3.1-3.1,4.3c-1.7,1.7-2.8,4.1-2.8,6.7c0,0.5,0,1,0.1,1.5
					c0.4,2.2,0.6,4.5,0.1,6.7c-0.2,0.9-0.3,1.8-0.3,2.7c0,7.2,5.1,13.1,11.5,13.1c1.4,0,2.8-0.8,4.1-2.1c4.8-4.6,12.2-4.5,17.4-0.3
					c1.5,1.2,3.1,1.9,4.7,1.9c7.5,0,13.6-6.1,13.6-13.6c0-1.2-0.2-2.4-0.5-3.5c-0.6-2.2-0.7-4.6,0.1-6.8
					C98.2,119.2,98.3,118.3,98.3,117.4z"/>
				<path id="XMLID_4066_" class="st24" d="M60,134.3c0,3.2-2.6,5.8-5.8,5.8s-5.8-2.6-5.8-5.8s2.6-5.8,5.8-5.8S60,131.1,60,134.3z"
					/>
				<path id="XMLID_4065_" class="st24" d="M96.3,134.3c0,3.2-2.6,5.8-5.8,5.8s-5.8-2.6-5.8-5.8s2.6-5.8,5.8-5.8
					C93.7,128.5,96.3,131.1,96.3,134.3z"/>
				<path id="XMLID_4064_" class="st24" d="M72.5,157.1L72.5,157.1c-10.8,0-19.5-8.7-19.5-19.5v-22.5h39v22.5
					C92,148.4,83.2,157.1,72.5,157.1z"/>
				<path id="XMLID_4063_" class="st6" d="M66.1,143.9c-0.7,0-1.1,0.7-0.7,1.3c1.4,2.4,4.1,4,7.1,4s5.6-1.6,7.1-4.1
					c0.3-0.6-0.1-1.3-0.7-1.3L66.1,143.9z"/>
				<path id="XMLID_4062_" class="st25" d="M64.9,133.5c0,0.8-0.7,1.5-1.5,1.5s-1.5-0.7-1.5-1.5s0.7-1.5,1.5-1.5
					S64.9,132.7,64.9,133.5z"/>
				<path id="XMLID_4061_" class="st25" d="M80.1,133.5c0,0.8,0.7,1.5,1.5,1.5s1.5-0.7,1.5-1.5s-0.7-1.5-1.5-1.5
					S80.1,132.7,80.1,133.5z"/>
			</g>
			<path id="XMLID_4059_" class="st21" d="M54.2,243.4h38.5c0.6,0,1-0.5,1-1V238c0-0.6-0.5-1-1-1H54.2c-0.6,0-1,0.5-1,1v4.3
				C53.1,242.9,53.6,243.4,54.2,243.4z"/>
			<rect id="XMLID_4058_" x="85.3" y="236" class="st17" width="3" height="8.1"/>
			<rect id="XMLID_4057_" x="58.9" y="236" class="st17" width="3" height="8.1"/>
			<path id="XMLID_4056_" class="st26" d="M71,243.6h4.8c1,0,1.8-0.8,1.8-1.8v-3.5c0-1-0.8-1.8-1.8-1.8H71c-1,0-1.8,0.8-1.8,1.8v3.5
				C69.2,242.8,70,243.6,71,243.6z"/>
			<line id="XMLID_4055_" class="st27" x1="73.4" y1="240.1" x2="69.4" y2="240.1"/>
			<path class="st23" d="M56.7,129v-9.5c0-0.9,1.1-1.5,1.8-0.9c2.8,2.1,7.9,3.5,13.8,3.5c6.1,0,11.4-1.5,14.1-3.8
				c0.7-0.6,1.8-0.1,1.8,0.9v9.8c0,2.2,1.8,3.9,3.9,3.9h0.8v-19.6h-1.4c-2,0-4-0.5-5.8-1.5c-2.9-1.7-8.1-4.2-13.6-4.2
				c-6.2,0-11.5,1.6-14.2,3.9c-1.2,1-2.8,1.6-4.4,1.6h-1v19.8l0,0C54.9,132.9,56.7,131.1,56.7,129z"/>
			<g>
				<path class="st28" d="M50.6,225c-9.9-2.3-13.9-7.2-15.7-11.7c-6.6-16.9,10.4-42.7,12.4-45.6c1.9-2.8,5.6-3.5,8.4-1.6
					s1.5,4.6-0.4,7.3l0,0c-6,8.9-10.5,26-7.2,34.3c0.6,1.6,0.6,4,5.8,5.2c2.9,0.7,13-0.5,19.1-5.2c1.9-1.4,3-2.9,3.1-4
					c0.1-3.3,3-5.9,6.3-5.8c3.3,0.1,5.2,2.9,5,6.2c-0.1,3.3-1.2,8.8-7,14C74,223.9,62.4,227.7,50.6,225z"/>
			</g>
			<g>
				<path class="st14" d="M130.3,181.6L130.3,181.6c-18.3,0-32.6-18.4-32.7-18.6c-2-2.6-5.8-3.2-8.4-1.2c-2.7,2-3.2,5.8-1.2,8.5
					c0.7,1,18,23.4,42.3,23.4l0,0V181.6z"/>
			</g>
			<g>
				<path class="st14" d="M67,221.5c-1.4,0-7.8,2.2-16.2,0C41,219,36.7,213.5,35,209c-6.7-16.8,10.3-42.6,12.3-45.5
					c1.9-2.8,5.6-3.5,8.4-1.6s3.5,5.6,1.6,8.4l0,0c-6,8.9-14.3,26-11.1,34.3c0.6,1.6,2.1,4,7.3,5.1c2.9,0.7,13.3-1.6,19.4-6.2
					c1.9-1.4,3-2.9,3.1-4c0.1-3.3,3-5.9,6.3-5.8c3.3,0.1,5.9,3,5.8,6.3s-1.6,8.3-7.8,13C73.5,218.3,67,221.5,67,221.5z"/>
			</g>
			<g>
				
					<rect x="52.3" y="166.2" transform="matrix(0.8975 -0.4409 0.4409 0.8975 -67.2737 66.2083)" class="st29" width="113.1" height="23.3"/>
				<path class="st30" d="M154.5,142.5l33.4-4.6c1.1-0.1,1.7,1.1,0.9,1.9l-24.1,23.6L154.5,142.5z"/>
				<path class="st31" d="M177.3,139.3l10.6-1.5c1.1-0.1,1.7,1.1,0.9,1.9l-7.7,7.5L177.3,139.3z"/>
				
					<rect x="34.7" y="196.6" transform="matrix(0.8974 -0.4411 0.4411 0.8974 -87.0574 42.0992)" class="st32" width="24.7" height="23.3"/>
				<path class="st33" d="M30.8,203.3l-10.6,5.2c-2.8,1.4-4,4.8-2.6,7.6l5.3,10.7c1.4,2.8,4.8,4,7.6,2.6l10.6-5.2L30.8,203.3z"/>
				
					<rect x="41.1" y="196.6" transform="matrix(0.8974 -0.4411 0.4411 0.8974 -87.0536 42.1085)" class="st13" width="11.8" height="23.3"/>
				
					<rect x="49.7" y="166.8" transform="matrix(0.8975 -0.4409 0.4409 0.8975 -65.2337 64.5222)" class="st9" width="113.1" height="11.6"/>
				
					<rect x="32.1" y="197.3" transform="matrix(0.8974 -0.4411 0.4411 0.8974 -85.0169 40.4501)" class="st34" width="24.7" height="11.6"/>
			</g>
			<g>
				<path class="st24" d="M61.6,222.3l0.3-8.5l8.9-4.3c1.5-1.2,5.1-6,5.3-9.9c0.1-3.3,2.9-5.8,6.2-5.7c3.3,0.1,5.8,2.9,5.7,6.2
					c-0.3,6.4-3.6,12.4-9,16.6C74.8,219.8,68.3,222.5,61.6,222.3z"/>
			</g>
			<path class="st24" d="M148.1,163.4c-3.3,0-5.9,2.7-5.9,5.9c0,3-1.4,6.1-3.9,8.6c-2.4,2.4-5.4,3.8-8,3.8l0,0v11.9l0,0
				c5.8,0,11.8-2.7,16.5-7.4s7.3-10.9,7.3-17C154.1,166.1,151.4,163.4,148.1,163.4z"/>
			<path class="st35" d="M69.5,134.4c0,3.1-2.5,5.6-5.6,5.6s-5.6-2.5-5.6-5.6s2.5-5.6,5.6-5.6S69.5,131.3,69.5,134.4z"/>
			<path class="st35" d="M86.3,134.4c0,3.1-2.5,5.6-5.6,5.6s-5.6-2.5-5.6-5.6s2.5-5.6,5.6-5.6S86.3,131.3,86.3,134.4z"/>
			<path class="st36" d="M69.4,133.8c0-1.6,1.3-2.9,2.9-2.9s2.9,1.3,2.9,2.9"/>
			<g>
				<polygon class="st6" points="92.2,128.5 85.8,132.5 86.4,133.3 92.2,129.7 				"/>
			</g>
			<g>
				<polygon class="st6" points="52.7,128.7 52.7,129.9 58.3,133.3 58.8,132.5 				"/>
			</g>
		</g>
		<g>
			<path class="st37" d="M254.2,175.3c-0.3,0-0.7-0.1-0.9-0.4l-4-4c-0.5-0.5-0.5-1.3,0-1.8s1.3-0.5,1.8,0l3,3l7-7
				c0.5-0.5,1.3-0.5,1.8,0s0.5,1.3,0,1.8l-7.9,7.9C254.9,175.2,254.6,175.3,254.2,175.3z"/>
		</g>
		<g>
			<path class="st37" d="M253.7,222.7c-0.3,0-0.7-0.1-0.9-0.4l-4-4c-0.5-0.5-0.5-1.3,0-1.8s1.3-0.5,1.8,0l3,3l7-7
				c0.5-0.5,1.3-0.5,1.8,0s0.5,1.3,0,1.8l-7.9,7.9C254.4,222.6,254.1,222.7,253.7,222.7z"/>
		</g>
		<g>
			<path class="st37" d="M254,268.4c-0.3,0-0.7-0.1-0.9-0.4l-4-4c-0.5-0.5-0.5-1.3,0-1.8s1.3-0.5,1.8,0l3,3l7-7
				c0.5-0.5,1.3-0.5,1.8,0s0.5,1.3,0,1.8l-7.9,7.9C254.6,268.3,254.3,268.4,254,268.4z"/>
		</g>
		<g>
			<path class="st38" d="M367.5,159.6c-0.2,3.7-0.3,7.2-0.3,10.6c0,3.4,0.1,6.6,0.4,9.6s0.6,5.9,1.3,8.6c0.1,0.7,0.3,1.3,0.5,2
				c0.2,0.6,0.3,1.3,0.5,1.9l0.6,1.8l0.7,2l3,8.5c1,3,2.1,6.2,3.1,9.6c1,3.4,1.8,7.3,2.3,11.5c0.1,1.1,0.2,2.1,0.3,3.3l0.1,3.5
				c-0.1,2.4-0.3,4.9-0.8,7.5c-0.1,0.6-0.3,1.3-0.4,1.9c-0.2,0.6-0.4,1.3-0.6,1.9l-0.6,1.9l-0.3,1l-0.4,0.9
				c-0.6,1.2-1.2,2.5-1.8,3.7c-0.7,1.2-1.4,2.3-2.2,3.4l-0.6,0.8c-0.1,0.2-0.1,0.2-0.2,0.3L372,256l-0.6,0.8c-0.4,0.5-0.8,1-1.2,1.6
				L369,260l-1.2,1.7c-0.8,1.1-1.5,2.3-2.3,3.4c-0.8,1.2-1.5,2.4-2.3,3.5c-1.4,2.4-2.9,4.8-4.2,7.3c-2.7,5-5.1,10.2-7,15.9l-0.4,1.1
				l-0.3,1.1c-0.2,0.7-0.4,1.5-0.7,2.2c-0.3,0.8-0.4,1.5-0.6,2.3s-0.4,1.6-0.5,2.4c-0.2,0.8-0.2,1.6-0.4,2.4l-0.4,2.5
				c-0.2,1.7-0.3,3.5-0.6,5.4c-1.4-1.2-2.8-2.5-4.1-3.9c-1.1-1.5-2.4-3-3.3-4.6c-0.5-0.8-1-1.7-1.4-2.5c-0.4-0.9-0.9-1.7-1.3-2.6
				s-0.7-1.8-1.1-2.7c-0.2-0.5-0.3-0.9-0.5-1.4l-0.4-1.4c-2.1-7.5-2.5-15.5-1.5-23.2c0.2-2,0.6-3.8,0.9-5.7c0.4-1.9,0.9-3.7,1.4-5.6
				c1.1-3.7,2.4-7.3,4.1-10.8c0.8-1.8,1.7-3.5,2.7-5.2c0.4-0.9,1-1.7,1.5-2.6l0.8-1.3l0.2-0.3c0.1-0.1,0.2-0.2,0.1-0.3l0.1-0.2
				c0.1-0.3,0.3-0.5,0.4-0.8s0.2-0.6,0.3-0.8l0.1-0.2v-0.2c0-0.1,0.1-0.3,0.1-0.4l0.1-0.4c0-0.2,0-0.4,0.1-0.5
				c0.2-0.6,0.2-1.5,0.3-2.4c0-0.5,0-1,0.1-1.5c0-0.5,0-1.1,0-1.7c0-2.3-0.2-5-0.6-8.1c-0.3-3-0.7-6.3-0.9-9.8
				c-0.1-1.7-0.2-3.6-0.3-5.4c0-1.9-0.1-3.7,0-5.7c0-1,0.1-1.9,0.1-2.9l0.3-3.2c0.1-1.1,0.3-2.1,0.5-3.1s0.4-2,0.7-3
				c1-3.9,2.6-7.6,4.5-11s4.1-6.4,6.7-9.2C361.5,163.9,364.3,161.4,367.5,159.6z"/>
			<path class="st39" d="M359.3,184.1c-0.9,5.6-1.1,11.3-0.1,16.8c0.8,5.6,2.2,11.1,3.4,16.6c1.2,5.5,2.3,11.2,2.3,17
				s-1.8,11.8-5.3,16.4c-3.2,4.6-5.9,9.5-8.2,14.6c-2.3,5.1-4.1,10.4-5.3,15.9c-1.2,5.5-1.8,11.1-1.5,16.7
				c0.2,5.6,1.4,11.2,3.5,16.5c-2.5-5.1-3.9-10.7-4.5-16.4c-0.5-5.7-0.1-11.5,1-17.1c2.2-11.2,6.9-21.9,13.4-31.4
				c0.4-0.6,0.8-1.2,1.1-1.7c0.3-0.6,0.8-1.1,1.1-1.7c0.5-1.2,1.2-2.4,1.5-3.8c0.2-0.7,0.5-1.3,0.6-2l0.4-2c0.1-0.7,0.1-1.4,0.2-2
				c0.1-0.7,0.1-1.4,0.1-2.1v-2.1c0-0.7-0.1-1.4-0.1-2.1c0-1.4-0.3-2.8-0.4-4.2c-0.4-2.8-0.9-5.5-1.4-8.3
				c-1.1-5.5-2.3-11.1-2.8-16.8C357.5,195.4,357.9,189.6,359.3,184.1z"/>
			<path class="st37" d="M321,172.7c2.7,2.3,4.9,5.1,6.9,8.1s3.7,6.2,5,9.6c1.3,3.4,2.4,7,2.9,10.9c0.2,0.9,0.2,1.9,0.3,2.9
				c0.1,1,0.2,1.9,0.2,2.9v3c0,1-0.1,1.9-0.2,2.8c-0.1,1.9-0.4,3.6-0.6,5.4c-0.3,1.7-0.5,3.5-0.8,5.2c-0.6,3.4-1.3,6.6-1.9,9.7
				c-0.6,3.1-1.1,5.9-1.4,8.5s-0.3,4.8-0.1,6.7c0,0.2,0,0.5,0.1,0.7l0.2,0.7l0.1,0.7l0.1,0.3l0.1,0.3c0.1,0.4,0.3,0.8,0.4,1.2
				c0.2,0.4,0.4,0.8,0.6,1.2l0.1,0.3c0,0.1,0.2,0.4,0.3,0.6l0.7,1.3c0.4,0.8,0.9,1.7,1.3,2.5c0.8,1.7,1.6,3.4,2.3,5.1
				c1.4,3.4,2.5,7,3.4,10.6c0.4,1.8,0.8,3.6,1.1,5.4c0.2,1.9,0.6,3.6,0.7,5.5c0.7,7.4,0.1,15-1.9,22.1l-0.4,1.3l-0.5,1.3
				c-0.3,0.9-0.6,1.7-1,2.6c-0.3,0.9-0.8,1.7-1.2,2.5c-0.4,0.8-0.9,1.6-1.3,2.4c-0.9,1.6-2.1,3-3.1,4.4c-1.2,1.4-2.4,2.6-3.7,3.8
				c0.1-1.8,0.3-3.5,0.5-5.2l0.1-2.5c0-0.8,0.1-1.6,0-2.4c0-0.8-0.1-1.6-0.1-2.4s0-1.6-0.1-2.3c-0.1-0.8-0.2-1.6-0.2-2.3l-0.1-1.1
				l-0.2-1.1c-0.9-6-2.6-11.7-4.6-17.3l-0.4-1l-0.4-1l-0.8-2c-0.5-1.4-1.2-2.7-1.8-4c-0.7-1.3-1.3-2.7-1.9-4
				c-0.7-1.3-1.3-2.6-2.1-3.9c-0.4-0.6-0.7-1.3-1.1-1.9l-1.1-1.8c-0.4-0.6-0.7-1.2-1.1-1.8l-0.6-0.9l-0.3-0.5l-0.5-0.8
				c-2.6-4.1-4-9-4.6-13.6c-0.3-2.4-0.3-4.6-0.3-6.8l0.3-3.2c0.1-1.1,0.3-2,0.4-3c0.7-3.9,1.7-7.6,2.8-10.9c1.1-3.3,2.3-6.5,3.5-9.4
				l1.7-4.4l0.8-2.1c0.3-0.7,0.5-1.4,0.8-2.1l0.7-2.1l0.6-1.9c0.2-0.6,0.4-1.3,0.5-2s0.4-1.4,0.5-2.1c0.1-0.7,0.3-1.4,0.4-2.1
				l0.3-2.2c0.1-0.7,0.2-1.5,0.2-2.2c0.1-0.8,0.1-1.5,0.2-2.3C322,186.2,321.7,179.7,321,172.7z"/>
			<path class="st39" d="M328.5,186.6c0.8,5.6,0.8,11.4-0.4,16.9c-1,5.6-2.7,11-4.2,16.5c-0.8,2.7-1.4,5.5-2.1,8.2
				c-0.2,1.4-0.6,2.8-0.7,4.2c-0.1,0.7-0.2,1.4-0.3,2.1l-0.1,2.1c-0.3,5.6,0.9,11.2,4,15.9c2.9,4.9,5.3,10.1,7.2,15.5
				c1.9,5.4,3.3,10.9,4,16.6c0.7,5.6,0.8,11.4-0.1,17s-2.6,11.1-5.4,16.1c2.6-5.1,4.2-10.5,4.9-16.1c0.7-5.6,0.6-11.3-0.2-16.8
				c-1.6-11.1-5.5-21.9-11.2-31.6c-3.1-4.9-4.4-10.8-4-16.5c0.3-5.7,1.8-11.3,3.4-16.7s3.3-10.8,4.4-16.4
				C328.9,197.9,329.1,192.2,328.5,186.6z"/>
			<g>
				<path class="st40" d="M348.5,346.2h-18.8c-1.4,0-2.5-1.1-2.5-2.5v-4h23.7v4C351,345.1,349.9,346.2,348.5,346.2z"/>
				<path class="st41" d="M346,342.4h-13.7c-8.1,0-14.6-6.5-14.6-14.6v-28.3h42.9v28.3C360.6,335.9,354.1,342.4,346,342.4z"/>
				<path class="st42" d="M363.6,305.4h-48.9V303c0-1.9,1.6-3.5,3.5-3.5h41.9c1.9,0,3.5,1.6,3.5,3.5V305.4z"/>
			</g>
		</g>
		<g>
			<path class="st43" d="M303.2,231.4c0.3,1.2,0.5,2.4,0.7,3.7c0.1,1.2,0.2,2.5,0.3,3.7c0.1,2.4,0,4.8-0.1,7.2
				c-0.3,4.7-0.8,9.1-1,13c-0.2,3.9,0.2,7.1,1.1,9.5c0.1,0.3,0.2,0.6,0.4,0.9c0.1,0.3,0.2,0.6,0.3,0.8c0.2,0.3,0.3,0.5,0.5,0.8
				l0.2,0.4l0.1,0.2l0.2,0.4c1.3,2.3,2.4,4.6,3.3,6.9c1.9,4.7,3.3,9.6,4,14.6s0.9,10.2,0.2,15.3c-0.7,5.1-2.1,10.2-4.6,14.7
				c-0.6,1.1-1.3,2.2-2,3.3l-1.1,1.6c-0.4,0.5-0.8,1-1.3,1.5c-0.4,0.5-0.8,0.9-1.3,1.4l-0.7,0.7l-0.7,0.6c-1,0.8-2,1.6-3,2.2
				c0-1.3,0.1-2.5,0.2-3.7l0.1-0.9v-0.9c0-0.6,0-1.1,0-1.7v-1.7l-0.1-1.7c-0.1-1.1,0-2.1-0.2-3.2c-0.3-4.2-1-8.1-1.9-12
				s-1.9-7.6-3.1-11.4c-1.2-3.7-2.6-7.4-4-11c-0.7-1.8-1.5-3.6-2.3-5.3l-0.9-2c-0.3-0.8-0.6-1.5-0.9-2.3l-0.6-2.4
				c-0.2-0.8-0.4-1.6-0.5-2.4l-0.3-2.4c-0.1-0.8,0-1.6,0-2.4s0-1.6,0.1-2.3l0.3-2.2c0.1-0.7,0.3-1.4,0.4-2.1c0.2-0.7,0.3-1.4,0.5-2
				c0.4-1.3,0.8-2.6,1.3-3.8c2-4.8,4.5-8.8,7.2-12.6c1.4-1.9,2.7-3.7,4.2-5.6c0.7-0.9,1.4-1.8,2.2-2.8
				C301.6,233.3,302.4,232.3,303.2,231.4z"/>
			<path class="st39" d="M297.7,245c-0.9,3.5-1.7,7-2,10.5s0,7.1,1.2,10.4c0.6,1.6,1.4,3.1,2.2,4.8c0.4,0.8,0.8,1.6,1.2,2.5
				c0.4,0.8,0.8,1.6,1.1,2.5c1.4,3.3,2.5,6.8,3.5,10.3c0.9,3.5,1.5,7.1,1.9,10.7c0.1,1.8,0.3,3.6,0.3,5.5c0,0.9,0,1.8,0,2.7
				l-0.2,2.7c-0.6,7.3-3.1,14.4-7.1,20.3c1.6-3.2,3.1-6.5,3.9-10c0.5-1.7,0.8-3.5,1.1-5.2c0.1-0.9,0.2-1.8,0.3-2.6
				c0.1-0.9,0.2-1.8,0.2-2.6l0.1-2.7c0-0.9,0-1.8-0.1-2.7c0-1.8-0.3-3.5-0.4-5.3c-0.5-3.5-1-7-2-10.4c-0.9-3.4-2-6.8-3.3-10.1
				c-0.3-0.8-0.7-1.6-1-2.5c-0.3-0.8-0.7-1.6-1.1-2.4c-0.8-1.6-1.6-3.3-2.2-5.1c-1.2-3.6-1.2-7.4-0.7-10.9
				C295.3,251.8,296.4,248.3,297.7,245z"/>
			<g>
				<path class="st44" d="M312.2,346.2h-13.1c-0.9,0-1.7-0.8-1.7-1.7v-2.8h16.5v2.8C313.9,345.5,313.1,346.2,312.2,346.2z"/>
				<path class="st45" d="M310.4,343.6h-9.5c-5.6,0-10.1-4.5-10.1-10.2v-19.7h29.8v19.7C320.5,339,316,343.6,310.4,343.6z"/>
				<path class="st46" d="M322.6,317.8h-34v-1.7c0-1.3,1.1-2.4,2.4-2.4h29.1c1.3,0,2.4,1.1,2.4,2.4v1.7H322.6z"/>
			</g>
		</g>
	</g>
</g>
</svg>
